<svg version="1.1" id="Layer_1" xmlns="http://www.w3.org/2000/svg" xmlns:xlink="http://www.w3.org/1999/xlink" x="0px" y="0px"
	 width="100%" viewBox="0 0 500 500" enable-background="new 0 0 500 500" xml:space="preserve">

<path fill="#F5F5F5" opacity="1.000000" stroke="none" 
	d="
M408.131104,207.788940 
	C426.960785,213.731354 438.318542,226.228195 440.697571,245.280884 
	C443.125214,264.723328 435.429260,280.343658 418.134674,290.039490 
	C402.297485,298.918243 386.122772,298.177673 371.007843,288.064362 
	C356.333496,278.245789 349.821838,263.920013 351.605225,246.456650 
	C353.480347,228.094742 363.658630,215.591476 380.860077,208.914658 
	C389.651001,205.502426 398.639862,205.048645 408.131104,207.788940 
M375.121552,272.384857 
	C376.016724,273.127533 376.900208,273.884888 377.808868,274.610657 
	C387.659485,282.478302 401.512451,283.165527 412.282867,276.326660 
	C423.008118,269.516479 428.499146,256.208191 425.479065,244.343903 
	C422.158447,231.298965 411.534668,222.073761 398.742157,221.126740 
	C386.243408,220.201462 374.765839,226.353455 369.382812,237.733215 
	C363.538422,250.088501 365.465454,261.630371 375.121552,272.384857 
z M236.408493,254.999756 
	C236.408508,238.550812 236.408508,222.601883 236.408508,206.392532 
	C241.844803,206.392532 246.773346,206.392532 252.151520,206.392532 
	C252.151520,218.467651 252.151520,230.565918 252.151520,243.043701 
	C253.984421,243.139267 255.392761,243.212708 257.361572,243.315353 
	C257.361572,230.911728 257.361572,218.850204 257.361572,206.462250 
	C262.792877,206.462250 267.697968,206.462250 272.993652,206.462250 
	C272.993652,235.373459 272.993652,264.405762 272.993652,293.723938 
	C268.142334,293.723938 263.224823,293.723938 257.811768,293.723938 
	C257.811768,281.773102 257.811768,269.720032 257.811768,257.280884 
	C255.792145,257.280884 254.259460,257.280884 252.323975,257.280884 
	C252.323975,269.436859 252.323975,281.535004 252.323975,293.816589 
	C246.974640,293.816589 242.021820,293.816589 236.408478,293.816589 
	C236.408478,281.020569 236.408478,268.260162 236.408493,254.999756 
z M163.705597,287.838074 
	C163.705597,289.966095 163.705597,291.615112 163.705597,293.632996 
	C158.390076,293.632996 153.330338,293.632996 147.779999,293.632996 
	C147.779999,289.964569 147.779984,286.175049 147.780014,282.385529 
	C147.780136,262.058136 147.760513,241.730698 147.788437,221.403336 
	C147.803116,210.710464 152.324951,206.180145 162.915329,206.128067 
	C165.747726,206.114136 168.583145,206.049454 171.412231,206.148834 
	C179.272568,206.424973 184.564194,211.065857 184.636444,218.850479 
	C184.866623,243.654602 184.721741,268.462189 184.721741,293.638550 
	C179.464386,293.638550 174.423080,293.638550 169.022263,293.638550 
	C169.022263,284.740692 169.022263,275.813080 169.022263,266.338593 
	C167.199295,266.242859 165.694290,266.163818 163.705597,266.059387 
	C163.705597,273.444519 163.705597,280.401794 163.705597,287.838074 
M163.768555,221.817719 
	C163.768555,232.025742 163.768555,242.233765 163.768555,252.758209 
	C165.719467,252.668915 167.105209,252.605484 168.865265,252.524933 
	C168.865265,242.439545 168.994873,232.696396 168.792877,222.960114 
	C168.724884,219.682816 167.003067,218.345139 163.768555,221.817719 
z M101.380417,224.170288 
	C101.380424,231.138031 101.239586,237.632339 101.423065,244.117462 
	C101.582481,249.751968 100.527336,254.711838 94.713921,258.222076 
	C100.638786,261.551270 101.573807,266.661285 101.424850,272.387665 
	C101.239731,279.504272 101.380463,286.629395 101.380463,293.839478 
	C95.924088,293.839478 90.967659,293.839478 85.632004,293.839478 
	C85.632004,284.567657 85.632004,275.453796 85.632004,265.934845 
	C83.745827,265.934845 82.237854,265.934845 80.349731,265.934845 
	C80.349731,275.295288 80.349731,284.405029 80.349731,293.757507 
	C75.057419,293.757507 70.131622,293.757507 64.805130,293.757507 
	C64.805130,264.812195 64.805130,235.816299 64.805130,206.400772 
	C73.529961,206.400772 82.294853,205.944717 90.984573,206.556381 
	C97.076057,206.985138 100.782211,211.902939 101.274490,218.205002 
	C101.416740,220.025940 101.350883,221.863129 101.380417,224.170288 
M80.198631,241.462189 
	C80.198631,244.903687 80.198631,248.345169 80.198631,251.747925 
	C83.791733,252.592117 85.620110,251.654022 85.629539,248.277893 
	C85.652725,239.970016 85.663330,231.661972 85.633080,223.354141 
	C85.619820,219.713593 83.714584,218.874207 80.198647,219.917740 
	C80.198647,226.894867 80.198647,233.683563 80.198631,241.462189 
z M208.059784,238.002411 
	C208.059784,250.333313 207.995682,262.165314 208.113480,273.995453 
	C208.137253,276.382935 206.753525,279.953461 210.791245,280.191040 
	C211.462891,280.230530 212.935944,276.076416 213.078583,273.800049 
	C213.419785,268.354462 213.188766,262.873047 213.188766,257.098572 
	C218.507751,257.098572 223.438766,257.098572 228.772980,257.098572 
	C228.772980,266.157867 229.224167,275.438049 228.599228,284.645233 
	C228.239792,289.940735 222.796738,293.709991 217.121140,293.950043 
	C213.128723,294.118866 209.122131,294.079865 205.125229,293.988220 
	C197.595230,293.815521 192.317856,289.092255 192.240921,281.578735 
	C192.025940,260.584808 192.029602,239.585815 192.245392,218.591873 
	C192.319778,211.353943 197.437424,206.580872 204.711121,206.193787 
	C208.698837,205.981567 212.716049,205.985733 216.704132,206.194580 
	C223.408234,206.545609 228.622009,210.951431 228.892975,217.154800 
	C229.269485,225.774872 228.987671,234.423706 228.987671,243.324432 
	C223.783386,243.324432 218.853119,243.324432 213.187668,243.324432 
	C213.187668,236.975098 213.340439,230.717651 213.083328,224.477097 
	C213.016663,222.858765 211.667358,221.293289 210.907211,219.703537 
	C209.958328,221.304016 208.342697,222.843964 208.190826,224.516800 
	C207.800751,228.814041 208.060043,233.170212 208.059784,238.002411 
z M108.994698,255.000000 
	C108.994698,238.557602 108.994698,222.615189 108.994698,206.402115 
	C120.095253,206.402115 130.822769,206.402115 141.883881,206.402115 
	C141.883881,210.690613 141.883881,214.907166 141.883881,219.540680 
	C136.338516,219.540680 130.910095,219.540680 125.198822,219.540680 
	C125.198822,227.509460 125.198822,235.068649 125.198822,243.045212 
	C129.041763,243.045212 132.794159,243.045212 136.864456,243.045212 
	C136.864456,247.668732 136.864456,251.886139 136.864456,256.522278 
	C132.999023,256.522278 129.233994,256.522278 125.191605,256.522278 
	C125.191605,264.678223 125.191605,272.426575 125.191605,280.586182 
	C130.668793,280.586182 136.086884,280.586182 141.856354,280.586182 
	C141.856354,285.172638 141.856354,289.358368 141.856354,293.779724 
	C131.065979,293.779724 120.318962,293.779724 108.994698,293.779724 
	C108.994698,280.996429 108.994698,268.248230 108.994698,255.000000 
z"/>

<path fill="#C5C5C5" opacity="1.000000" stroke="none" 
	d="
M340.103577,227.219116 
	C335.589569,249.619095 331.141235,271.598816 326.656708,293.757507 
	C321.322083,293.757507 316.230560,293.757507 310.798218,293.757507 
	C315.755310,269.054749 320.651093,244.657715 325.676331,219.615448 
	C320.057404,219.615448 315.137451,219.615448 309.819366,219.615448 
	C309.819366,214.898895 309.819366,210.712753 309.819366,206.326721 
	C321.209290,206.326721 332.319214,206.326721 344.346405,206.326721 
	C342.914703,213.343521 341.541992,220.071182 340.103577,227.219116 
z M302.059937,284.957825 
	C302.059967,288.090179 302.059967,290.728363 302.059967,293.685883 
	C296.731537,293.685883 291.697632,293.685883 286.230835,293.685883 
	C286.230835,269.108643 286.230835,244.727203 286.230835,220.081345 
	C284.451935,219.792374 283.045837,219.563980 281.324982,219.284439 
	C281.324982,215.045700 281.324982,210.846176 281.324982,206.387238 
	C288.085449,206.387238 294.672150,206.387238 302.059937,206.387238 
	C302.059937,232.419144 302.059937,258.441406 302.059937,284.957825 
z M407.299866,230.415863 
	C417.753265,237.774445 421.615173,247.315369 418.592957,257.718201 
	C416.106720,266.276093 407.508362,273.469421 399.091827,274.032745 
	C388.102600,274.768250 379.300232,269.915527 375.017303,260.760559 
	C371.022827,252.222061 372.809845,241.664291 379.406830,234.827240 
	C386.541473,227.432983 396.611115,225.747589 407.299866,230.415863 
M388.116089,252.982620 
	C389.556213,257.316223 392.503906,259.549927 397.116241,259.134766 
	C400.806183,258.802582 403.767792,256.721436 403.917694,253.095200 
	C404.033234,250.301025 403.141296,246.451859 401.218201,244.870102 
	C399.272766,243.269989 395.250183,242.982773 392.603424,243.742844 
	C388.978882,244.783707 387.588776,248.293350 388.116089,252.982620 
z"/>
</svg>