<svg version="1.1" id="Layer_1" xmlns="http://www.w3.org/2000/svg" xmlns:xlink="http://www.w3.org/1999/xlink" x="0px" y="0px"
	 width="100%" viewBox="0 0 500 500" enable-background="new 0 0 500 500" xml:space="preserve">
<path fill="#F5F5F5" opacity="1.000000" stroke="none" 
	d="
M181.891571,192.885208 
	C197.707047,158.921402 233.160614,141.644440 269.208710,150.045319 
	C303.675171,158.077591 327.955444,191.364273 326.529419,226.844009 
	C325.186951,260.244263 300.895599,292.778656 261.884949,298.431915 
	C216.155060,305.058868 178.085953,270.664703 175.693466,229.247375 
	C174.971497,216.749268 176.510727,204.701385 181.891571,192.885208 
M277.626770,278.169525 
	C307.925140,262.970612 320.374847,227.104813 305.761780,197.116837 
	C291.053436,166.933350 254.916077,154.507690 224.225113,169.080872 
	C194.966263,182.974045 181.926941,219.426178 195.690277,248.851593 
	C210.148804,279.763306 245.828918,292.800903 277.626770,278.169525 
z M66.376053,406.999756 
	C66.376068,378.377319 66.376068,350.254944 66.376068,321.333282 
	C68.452469,321.333282 70.200256,321.333099 71.948044,321.333313 
	C80.440758,321.334351 88.936470,321.193237 97.425453,321.371735 
	C108.702316,321.608856 115.218582,327.862518 115.455009,339.008270 
	C115.716286,351.325500 115.555450,363.652679 115.501999,375.975220 
	C115.474312,382.355042 112.306137,386.993347 106.640373,390.440796 
	C113.906288,394.657623 115.849800,401.026001 115.599327,408.732635 
	C115.286819,418.347870 115.524277,427.980957 115.524277,437.789917 
	C108.302910,437.789917 101.557915,437.789917 94.465225,437.789917 
	C94.465225,425.298676 94.465225,413.021667 94.465225,400.401123 
	C92.083252,400.401123 90.045486,400.401123 87.619156,400.401123 
	C87.619156,412.817841 87.619156,425.083496 87.619156,437.678589 
	C80.517570,437.678589 73.783058,437.678589 66.376045,437.678589 
	C66.376045,427.693085 66.376045,417.596436 66.376053,406.999756 
M93.625702,380.940735 
	C93.819138,368.029877 94.246056,355.115784 94.066139,342.210144 
	C94.010948,338.251495 90.608879,338.738251 87.878914,339.440887 
	C87.878914,353.797150 87.878914,367.838928 87.878914,382.372406 
	C89.809708,382.080750 91.385376,381.842712 93.625702,380.940735 
z M344.045044,337.828735 
	C343.970123,359.467590 343.882111,381.106445 343.825592,402.745331 
	C343.795593,414.224609 343.820251,425.703979 343.820251,437.594177 
	C336.819763,437.594177 329.969482,437.594177 322.695007,437.594177 
	C322.695007,421.471985 322.695007,405.395660 322.695007,389.014282 
	C320.354614,389.014282 318.424255,389.014282 315.950867,389.014282 
	C315.950867,405.074097 315.950867,421.292114 315.950867,437.753662 
	C308.680054,437.753662 301.947418,437.753662 294.739075,437.753662 
	C294.739075,413.657227 294.739075,389.733612 294.752655,364.899719 
	C294.766235,349.933655 294.766235,335.877899 294.766235,321.618164 
	C299.006958,321.407898 302.617737,321.228882 306.228516,321.049866 
	C309.193329,321.168945 312.158112,321.287994 315.559570,321.208374 
	C315.996216,321.009735 315.881470,320.985138 315.794800,321.446533 
	C315.813446,326.902802 315.918793,331.897705 315.924744,337.362274 
	C315.887817,343.898254 315.950287,349.964508 315.939148,356.491089 
	C315.865601,361.540314 315.865601,366.129211 315.865601,370.650482 
	C318.438293,370.650482 320.357391,370.650482 322.534027,370.650482 
	C322.534027,364.606049 322.534027,358.826447 322.643555,352.614319 
	C322.694977,349.843353 322.636841,347.504883 322.640503,344.693665 
	C322.590759,339.783630 322.479279,335.346436 322.476562,330.799927 
	C322.585358,330.690613 322.524200,330.388336 322.597717,329.915894 
	C322.788910,326.861847 322.906586,324.280243 323.025665,321.667603 
	C330.156891,321.667603 336.725494,321.667603 344.045044,321.667603 
	C344.045044,327.281189 344.045044,332.554962 344.045044,337.828735 
z M225.937454,334.456757 
	C225.937454,368.737518 225.937454,403.018280 225.937454,437.649780 
	C219.093094,437.649780 212.363983,437.649780 205.191620,437.649780 
	C205.191620,425.766052 205.191620,413.706512 205.191620,401.297058 
	C202.707474,401.297058 200.649933,401.297058 198.186127,401.297058 
	C198.186127,413.192169 198.186127,425.271759 198.186127,437.674042 
	C191.070938,437.674042 184.342514,437.674042 176.990250,437.674042 
	C176.990250,404.217834 176.990250,370.663361 177.064163,336.291260 
	C179.726929,331.588226 182.315796,327.702759 184.904663,323.817261 
	C188.336472,322.968292 191.768295,322.119324 196.060120,321.275116 
	C199.717575,321.298126 202.522873,321.460480 205.311066,321.308655 
	C215.362701,320.761322 222.499893,324.679871 225.937454,334.456757 
M204.934097,362.328979 
	C204.943649,356.208893 205.215057,350.070709 204.794525,343.980316 
	C204.676666,342.273499 202.521729,340.707306 201.301224,339.076630 
	C200.199219,340.652161 198.246094,342.177155 198.148911,343.812378 
	C197.806442,349.575012 198.100693,355.375488 198.020599,362.068329 
	C198.020599,368.985291 198.020599,375.902252 198.020599,382.857300 
	C200.529114,382.857300 202.580597,382.857300 204.788757,382.857300 
	C204.788757,376.153168 204.788757,369.723236 204.934097,362.328979 
z M257.156403,370.854065 
	C257.101532,385.679749 256.933380,400.507080 257.153625,415.328674 
	C257.177643,416.946625 259.438843,418.531342 260.662384,420.131470 
	C261.760406,418.562073 263.751190,417.024323 263.808075,415.418060 
	C264.119537,406.622009 263.956482,397.809174 263.956482,388.752838 
	C271.069427,388.752838 277.827057,388.752838 284.846741,388.752838 
	C284.846741,400.459198 285.236267,411.938995 284.715759,423.377380 
	C284.341675,431.597626 277.343811,437.617310 268.994446,437.934204 
	C263.669922,438.136292 258.330536,438.076782 253.000626,437.980011 
	C242.916275,437.796967 236.105179,431.057678 236.031647,420.954468 
	C235.910385,404.292877 235.984100,387.629852 235.972321,370.039642 
	C235.978806,359.330627 235.955002,349.549194 236.007187,339.768219 
	C236.068039,328.364410 242.289337,321.876587 253.642532,321.361572 
	C257.444366,321.189087 261.252777,321.161896 265.058197,321.068237 
	C267.734833,321.411438 270.411469,321.754639 273.729126,322.338593 
	C281.750061,325.856537 285.010223,331.646362 284.981537,339.597992 
	C284.948517,348.742371 285.078339,357.887360 285.137451,367.032074 
	C285.033386,368.175018 284.929321,369.317932 284.783813,370.915771 
	C278.108673,370.915771 271.412781,370.915771 264.336029,370.291809 
	C263.956909,361.212921 264.147461,352.750427 263.808258,344.309235 
	C263.736572,342.524597 261.726868,340.817871 260.610168,339.075226 
	C259.405090,340.719788 257.215271,342.331726 257.159515,344.014343 
	C256.863373,352.951141 257.102600,361.905670 257.156403,370.854065 
z M160.237595,339.307556 
	C155.935104,339.307556 151.632599,339.307556 146.955719,339.307556 
	C146.955719,349.612122 146.955719,359.793396 146.955719,370.427185 
	C152.222443,370.427185 157.322189,370.427185 162.701080,370.427185 
	C162.701080,376.448364 162.701080,382.029480 162.701080,388.013550 
	C157.685226,388.013550 152.593887,388.013550 147.041397,388.013550 
	C147.041397,398.767456 147.041397,409.137878 147.041397,420.027863 
	C154.192047,420.027863 161.607330,420.027863 169.387756,420.027863 
	C169.387756,426.094208 169.387756,431.664642 169.387756,437.628326 
	C154.997574,437.628326 140.462402,437.628326 125.649330,437.628326 
	C125.649330,399.101135 125.649330,360.546539 125.649330,321.280518 
	C130.428299,321.280518 135.032013,321.280518 140.546509,321.272980 
	C149.605774,321.275482 157.757599,321.171844 165.899323,321.410858 
	C167.209518,321.449341 169.513535,322.936646 169.586502,323.889862 
	C169.962494,328.801300 169.760925,333.756989 169.760925,339.307556 
	C166.166306,339.307556 163.201950,339.307556 160.237595,339.307556 
z"/>
<path fill="#C5C5C5" opacity="1.000000" stroke="none" 
	d="
M429.872925,321.351410 
	C432.668304,321.351501 434.984924,321.351501 438.064575,321.351501 
	C430.169708,360.329468 422.370667,398.834167 414.507507,437.655579 
	C407.666077,437.655579 400.925140,437.655579 393.465759,437.655579 
	C400.055939,404.891724 406.623871,372.238434 413.283142,339.131042 
	C406.117584,339.131042 399.354706,339.131042 392.198303,339.131042 
	C392.198303,333.206573 392.198303,327.657440 392.198303,321.351318 
	C404.559296,321.351318 416.976715,321.351318 429.872925,321.351410 
z M361.813324,321.077942 
	C368.266785,321.077942 374.720245,321.077942 381.496765,321.077942 
	C381.496765,360.384277 381.496765,398.910278 381.496765,437.721802 
	C374.645538,437.721802 367.926971,437.721802 360.767700,437.721802 
	C360.767700,404.900787 360.767700,372.330475 360.767700,339.435333 
	C358.432343,339.239960 356.500793,339.078400 353.755890,338.848755 
	C353.755890,336.180786 353.755890,333.425598 353.747955,329.782227 
	C353.867584,326.519684 353.995148,324.145386 354.132935,321.580658 
	C356.992432,321.393494 359.402893,321.235718 361.813324,321.077942 
z M223.619232,265.436615 
	C191.981491,242.981979 193.955734,197.899200 227.072311,179.626862 
	C250.285751,166.818665 280.145874,174.952927 293.860199,197.820679 
	C307.721527,220.933563 300.838593,251.364746 278.140625,265.524170 
	C260.250854,276.684113 242.015350,276.507385 223.619232,265.436615 
M230.974548,223.540482 
	C231.841980,238.974716 247.079132,248.402618 259.982513,241.488998 
	C268.860382,236.732239 272.938843,227.270981 270.138306,217.929382 
	C267.227905,208.221283 258.679962,202.671127 248.315460,203.759827 
	C239.068878,204.731110 232.049469,212.397629 230.974548,223.540482 
z"/>
<path fill="#E71E2F" opacity="1.000000" stroke="none" 
	d="
M255.374146,104.999924 
	C255.376236,96.667076 255.234619,88.829155 255.512222,81.006104 
	C255.562057,79.602097 257.358826,77.055733 258.320465,77.069237 
	C272.549225,77.268997 286.291199,80.168228 300.312195,85.024109 
	C299.154816,88.103401 298.200317,90.698296 297.206451,93.278015 
	C291.163055,108.964355 285.028595,124.616432 279.124298,140.354889 
	C277.799103,143.887268 276.325867,145.514435 272.242401,144.279587 
	C268.288147,143.083817 264.107880,142.470428 259.981262,142.058945 
	C256.319641,141.693832 255.273224,139.948151 255.322418,136.497253 
	C255.469666,126.166672 255.374405,115.832619 255.374146,104.999924 
z"/>
<path fill="#C02033" opacity="1.000000" stroke="none" 
	d="
M343.933411,210.901855 
	C333.442108,211.453781 333.442108,211.453781 330.675018,201.414642 
	C327.608002,190.287354 327.604340,190.280029 338.209381,184.993668 
	C352.210846,178.014252 366.255371,171.119690 380.198334,164.025421 
	C383.718842,162.234161 385.774445,162.742996 386.872711,166.611862 
	C390.135010,178.104233 393.452576,189.580963 396.696014,201.078629 
	C397.570862,204.179871 396.909210,205.950684 393.061737,206.276825 
	C376.822968,207.653381 360.608704,209.319702 343.933411,210.901855 
z"/>
<path fill="#017DBB" opacity="1.000000" stroke="none" 
	d="
M138.622894,172.415771 
	C149.695389,177.890503 160.405518,183.260742 171.215942,188.420837 
	C174.279709,189.883240 175.523499,191.436630 174.220245,194.959671 
	C172.609634,199.313522 171.499435,203.862778 170.348633,208.372421 
	C169.702789,210.903244 168.510056,211.882767 165.761520,211.605469 
	C147.061890,209.718842 128.356293,207.876938 109.631660,206.263870 
	C105.722229,205.927094 104.750420,204.649918 105.823463,200.951767 
	C109.059860,189.797882 111.899521,178.525497 115.305145,167.425507 
	C117.045715,161.752426 117.589333,161.805527 123.151154,164.579315 
	C128.213364,167.103897 133.250443,169.678833 138.622894,172.415771 
z"/>
<path fill="#ED412C" opacity="1.000000" stroke="none" 
	d="
M398.090576,216.669128 
	C397.105865,229.681046 396.033905,242.250793 395.075623,254.829208 
	C394.757294,259.007568 392.861115,259.627838 389.086212,258.528534 
	C371.674713,253.457947 354.223969,248.516937 336.730103,243.738724 
	C332.965363,242.710449 331.521759,241.047699 332.215576,237.080994 
	C332.959137,232.830124 333.166321,228.480927 333.515076,224.167160 
	C333.731018,221.496552 334.662323,220.097931 337.722443,219.840149 
	C356.466888,218.261154 375.189636,216.425278 393.931824,214.817352 
	C395.253632,214.703934 396.673431,215.732681 398.090576,216.669128 
z"/>
<path fill="#CC8C29" opacity="1.000000" stroke="none" 
	d="
M112.801804,267.508667 
	C131.532608,262.095459 149.958374,256.955536 168.306076,251.550568 
	C171.763992,250.531921 173.533249,251.259293 174.933182,254.465225 
	C176.661713,258.423676 178.623779,262.296143 180.732941,266.067078 
	C182.295609,268.860931 182.132339,270.724152 179.365234,272.777740 
	C164.388916,283.892487 149.528702,295.163971 134.661804,306.425415 
	C132.538483,308.033813 130.616592,309.070160 129.057602,305.932007 
	C123.298691,294.339569 117.536903,282.747986 111.920631,271.086517 
	C111.512497,270.239105 112.259689,268.835297 112.801804,267.508667 
z"/>
<path fill="#02ADD7" opacity="1.000000" stroke="none" 
	d="
M351.436279,256.613464 
	C363.806458,260.140442 375.788391,263.551270 387.787537,266.900421 
	C389.874176,267.482819 392.003235,268.067322 390.647919,270.811188 
	C384.630341,282.994171 378.497437,295.120239 372.370758,307.248932 
	C372.179382,307.627808 371.599762,307.810577 370.856018,308.322174 
	C369.579620,307.468781 368.184845,306.630005 366.891113,305.656921 
	C352.670654,294.960846 338.542511,284.139587 324.202698,273.606384 
	C320.649078,270.996063 320.048492,268.663635 322.288452,264.951080 
	C324.426636,261.407288 326.251556,257.641541 327.867004,253.826340 
	C329.034729,251.068466 330.677704,250.505875 333.351562,251.317902 
	C339.232178,253.103729 345.150787,254.764542 351.436279,256.613464 
z"/>
<path fill="#193768" opacity="1.000000" stroke="none" 
	d="
M203.851059,84.889252 
	C216.396774,80.218918 228.981949,77.469421 242.048477,76.941772 
	C245.616577,76.797684 247.103485,77.752869 247.069855,81.621330 
	C246.910751,99.923813 246.933136,118.228882 247.056107,136.531921 
	C247.079834,140.064819 245.827377,141.675247 242.308121,142.070374 
	C238.524597,142.495193 234.643143,142.935287 231.073105,144.155106 
	C226.336044,145.773651 224.706070,143.760086 223.171982,139.671188 
	C216.866272,122.864326 210.231247,106.181229 203.817444,89.414307 
	C203.333893,88.150208 203.635483,86.585785 203.851059,84.889252 
z"/>
<path fill="#03558A" opacity="1.000000" stroke="none" 
	d="
M190.289871,150.697617 
	C179.386414,138.755280 168.774124,127.025414 158.029831,115.417747 
	C155.788742,112.996567 155.610962,111.365868 158.572174,109.541763 
	C169.043564,103.091415 179.457870,96.548424 189.899780,90.050133 
	C192.830124,88.226509 194.629120,88.853996 195.921814,92.255951 
	C202.427567,109.376953 209.024612,126.464470 215.770676,143.492004 
	C217.201859,147.104416 216.804886,149.256195 213.088440,151.017136 
	C209.495804,152.719360 206.061081,154.872742 202.850250,157.227798 
	C199.967468,159.342224 197.879364,159.201996 195.667404,156.414093 
	C194.120102,154.463959 192.256485,152.764771 190.289871,150.697617 
z"/>
<path fill="#5EB947" opacity="1.000000" stroke="none" 
	d="
M182.069366,179.218155 
	C180.401703,181.630737 178.842178,182.855606 176.035965,181.440536 
	C158.491745,172.593765 140.893402,163.854431 123.323021,155.059402 
	C122.906296,154.850800 122.606926,154.407761 121.242882,153.122345 
	C127.499146,144.567688 133.428375,135.586899 140.255524,127.350357 
	C148.426086,117.493065 148.814514,117.716568 157.599091,127.227036 
	C168.331772,138.846603 178.903549,150.615143 189.674469,162.198776 
	C191.952911,164.649155 192.040314,166.457672 189.847076,168.979401 
	C187.121536,172.113159 184.787933,175.587814 182.069366,179.218155 
z"/>
<path fill="#D19F2B" opacity="1.000000" stroke="none" 
	d="
M305.131958,96.137619 
	C308.430695,87.901558 308.646820,87.524780 316.236237,91.877899 
	C325.449921,97.162643 334.246674,103.173439 343.235260,108.851967 
	C346.598358,110.976578 346.568756,112.949272 343.810394,115.914566 
	C331.338257,129.322281 319.024261,142.879120 306.802948,156.516312 
	C304.611908,158.961197 302.922028,159.565506 300.129913,157.550323 
	C296.899139,155.218521 293.526978,152.961823 289.929291,151.289993 
	C285.508606,149.235703 285.430420,146.620102 287.076599,142.529053 
	C293.222565,127.255226 299.062744,111.858376 305.131958,96.137619 
z"/>
<path fill="#289A49" opacity="1.000000" stroke="none" 
	d="
M358.185547,122.772255 
	C365.076324,131.941940 371.709473,140.857437 378.371552,149.751236 
	C380.988281,153.244492 379.763733,155.124130 376.101074,156.894608 
	C359.935913,164.708588 343.848602,172.685974 327.806030,180.749268 
	C324.613586,182.353867 322.411530,182.443726 320.300934,179.108887 
	C318.175293,175.750137 315.643280,172.625046 313.078949,169.574432 
	C310.790802,166.852356 310.543610,164.742905 313.201508,161.875565 
	C325.629242,148.468552 337.928772,134.939499 350.079895,121.281265 
	C353.750183,117.155731 355.649628,120.050232 358.185547,122.772255 
z"/>
<path fill="#48763E" opacity="1.000000" stroke="none" 
	d="
M108.157776,214.907486 
	C127.615234,216.621735 146.619766,218.253281 165.594391,220.179153 
	C166.820999,220.303635 168.560226,222.582886 168.784042,224.054062 
	C169.504745,228.791245 169.909424,233.624573 169.822556,238.409683 
	C169.793381,240.017700 168.232544,242.615402 166.853760,243.027466 
	C148.711929,248.449509 130.477341,253.561188 112.266045,258.750793 
	C109.708565,259.479614 108.004227,258.827698 107.721756,255.919205 
	C106.505661,243.397354 105.200874,230.882095 104.252022,218.339951 
	C104.172127,217.283890 106.492599,216.046234 108.157776,214.907486 
z"/>
<path fill="#F89C27" opacity="1.000000" stroke="none" 
	d="
M160.412323,339.555908 
	C163.201950,339.307556 166.166306,339.307556 169.760925,339.307556 
	C169.760925,333.756989 169.962494,328.801300 169.586502,323.889862 
	C169.513535,322.936646 167.209518,321.449341 165.899323,321.410858 
	C157.757599,321.171844 149.605774,321.275482 141.043182,321.173431 
	C139.418457,319.514771 138.207855,317.948120 136.633911,315.911255 
	C137.906601,314.799805 139.035980,313.687958 140.288605,312.738708 
	C154.733551,301.792206 169.261581,290.953705 183.605408,279.876617 
	C186.739944,277.455963 188.885254,277.317078 191.597153,280.313507 
	C194.152725,283.137177 196.985428,285.792450 200.038254,288.061646 
	C203.408691,290.566895 203.709488,292.744995 201.384430,296.334595 
	C195.706558,305.100616 190.480423,314.159241 184.988541,323.458679 
	C182.315796,327.702759 179.726929,331.588226 177.016312,335.837402 
	C174.692856,339.449188 172.491165,342.697205 169.896317,346.525238 
	C166.648224,344.180237 163.617630,341.992249 160.412323,339.555908 
z"/>
<path fill="#FAB614" opacity="1.000000" stroke="none" 
	d="
M361.992859,320.763855 
	C359.402893,321.235718 356.992432,321.393494 354.132935,321.580658 
	C353.995148,324.145386 353.867584,326.519684 353.659088,329.313934 
	C350.591156,332.334839 347.604156,334.935852 344.331116,337.682800 
	C344.045044,332.554962 344.045044,327.281189 344.045044,321.667603 
	C336.725494,321.667603 330.156891,321.667603 323.025665,321.667603 
	C322.906586,324.280243 322.788910,326.861847 322.480164,329.827057 
	C322.289093,330.210693 322.006866,330.133331 321.904358,329.798096 
	C319.828400,326.636963 317.854919,323.811035 315.881470,320.985138 
	C315.881470,320.985138 315.996216,321.009735 315.987396,321.067505 
	C311.076294,312.898987 306.344055,304.564026 301.190826,296.498047 
	C299.031952,293.118896 298.645569,290.884430 302.203522,288.252014 
	C305.651642,285.700867 308.708893,282.592316 311.773407,279.562317 
	C313.783722,277.574646 315.454498,277.365753 317.791718,279.149597 
	C332.701691,290.529175 347.611847,301.912476 362.711243,313.037567 
	C367.090820,316.264404 364.165375,318.123840 361.992859,320.763855 
z"/>
<path fill="#8D213E" opacity="1.000000" stroke="none" 
	d="
M285.509613,366.987854 
	C285.078339,357.887360 284.948517,348.742371 284.981537,339.597992 
	C285.010223,331.646362 281.750061,325.856537 274.131226,322.333710 
	C272.993286,317.527161 272.096222,312.965851 271.194489,308.405487 
	C270.637329,305.588043 271.302246,303.688782 274.403748,302.705383 
	C278.357025,301.452026 282.232849,299.884460 286.007904,298.158966 
	C289.651672,296.493439 292.084442,296.964050 294.174255,300.706116 
	C297.900146,307.377838 302.035675,313.820770 306.114197,320.704651 
	C302.617737,321.228882 299.006958,321.407898 294.766235,321.618164 
	C294.766235,335.877899 294.766235,349.933655 294.665863,364.430206 
	C291.670929,365.561859 288.776337,366.252716 285.509613,366.987854 
z"/>
<path fill="#DD1683" opacity="1.000000" stroke="none" 
	d="
M226.096832,334.062012 
	C222.499893,324.679871 215.362701,320.761322 205.311066,321.308655 
	C202.522873,321.460480 199.717575,321.298126 196.465027,321.174713 
	C200.345612,313.995178 204.756989,306.965515 208.976715,299.822662 
	C210.493591,297.255035 212.003738,296.311432 214.984268,297.680847 
	C219.197815,299.616760 223.555984,301.288300 227.963531,302.733887 
	C230.932968,303.707794 231.796249,305.181580 231.145874,308.264252 
	C229.366043,316.700287 227.866638,325.195496 226.096832,334.062012 
z"/>
<path fill="#EF6D26" opacity="1.000000" stroke="none" 
	d="
M265.023895,320.652161 
	C261.252777,321.161896 257.444366,321.189087 253.642532,321.361572 
	C242.289337,321.876587 236.068039,328.364410 236.007187,339.768219 
	C235.955002,349.549194 235.978806,359.330627 235.901520,369.578613 
	C228.225693,369.647247 228.223877,369.560638 229.608276,362.227203 
	C232.813004,345.251068 236.046814,328.278717 239.008636,311.259583 
	C239.745132,307.027557 241.419067,305.342285 245.808197,305.751373 
	C250.094055,306.150848 254.448929,305.934296 258.768097,305.806030 
	C261.442108,305.726624 262.682617,306.790710 263.043396,309.451050 
	C263.533844,313.067535 264.326538,316.643005 265.023895,320.652161 
z"/>
<path fill="#F16F28" opacity="1.000000" stroke="none" 
	d="
M257.576904,370.852081 
	C257.102600,361.905670 256.863373,352.951141 257.159515,344.014343 
	C257.215271,342.331726 259.405090,340.719788 260.610168,339.075226 
	C261.726868,340.817871 263.736572,342.524597 263.808258,344.309235 
	C264.147461,352.750427 263.956909,361.212921 263.893433,370.095642 
	C261.886932,370.632324 259.942200,370.741211 257.576904,370.852081 
z"/>
<path fill="#86364B" opacity="1.000000" stroke="none" 
	d="
M315.924744,337.362274 
	C318.021118,339.535736 320.018036,342.178864 322.296875,344.994232 
	C322.636841,347.504883 322.694977,349.843353 322.643555,352.614319 
	C320.554932,353.934784 318.575806,354.822784 316.304718,355.870789 
	C315.950287,349.964508 315.887817,343.898254 315.924744,337.362274 
z"/>
<path fill="#86364B" opacity="1.000000" stroke="none" 
	d="
M322.476593,330.799927 
	C322.115234,330.862549 321.977936,330.711304 321.981384,330.294373 
	C322.006866,330.133331 322.289093,330.210693 322.406647,330.299500 
	C322.524200,330.388336 322.585358,330.690613 322.476593,330.799927 
z"/>
<path fill="#DF1985" opacity="1.000000" stroke="none" 
	d="
M198.153427,361.161591 
	C198.100693,355.375488 197.806442,349.575012 198.148911,343.812378 
	C198.246094,342.177155 200.199219,340.652161 201.301224,339.076630 
	C202.521729,340.707306 204.676666,342.273499 204.794525,343.980316 
	C205.215057,350.070709 204.943649,356.208893 204.510925,362.744995 
	C202.109634,362.494507 200.131531,361.828064 198.153427,361.161591 
z"/>
</svg>