<svg version="1.1" id="Layer_1" xmlns="http://www.w3.org/2000/svg" xmlns:xlink="http://www.w3.org/1999/xlink" x="0px" y="0px"
	 width="100%" viewBox="0 0 496 496" enable-background="new 0 0 496 496" xml:space="preserve">
<path fill="#f5f5f5" opacity="1.000000" stroke="none" 
	d="
M97.296783,394.685211 
	C69.935959,364.897827 52.040634,330.626648 44.583019,291.162781 
	C33.550606,232.781982 45.055908,178.869904 78.824860,130.198837 
	C109.665344,85.748581 152.246597,58.050751 204.921478,45.739937 
	C229.350311,40.030598 254.012253,38.655411 278.725098,42.573387 
	C360.641724,55.560440 417.227875,100.781235 448.112213,177.682877 
	C459.177277,205.234741 463.101654,234.297577 461.142853,263.839172 
	C454.954071,357.175690 390.140198,435.032196 300.096222,455.394684 
	C221.975693,473.060791 153.961502,452.277252 97.296783,394.685211 
M401.172363,328.711060 
	C414.008850,304.391235 420.222260,278.282806 420.310883,250.981339 
	C420.374756,231.313324 416.788849,212.059723 410.091309,193.342972 
	C386.319000,126.909859 323.155243,81.981407 250.834839,81.579941 
	C231.692154,81.473679 212.865067,84.872078 194.601929,91.343788 
	C119.600975,117.921051 73.268715,192.747314 83.248749,272.175385 
	C86.807655,300.499695 96.817497,326.280090 113.405556,349.456757 
	C154.139832,406.370361 220.640305,429.211884 282.685791,417.153809 
	C335.661560,406.858337 375.161469,377.085175 401.172363,328.711060 
z"/>
<path fill="#c5c5c5" opacity="1.000000" stroke="none" 
	d="
M210.084412,384.209961 
	C184.396988,376.245941 163.018127,362.346527 145.800247,342.221680 
	C126.764229,319.971802 115.447784,294.331787 112.615349,265.074860 
	C109.072571,228.480591 118.445007,195.501999 140.469818,166.130035 
	C155.638077,145.901886 175.239777,131.320129 198.576035,121.872200 
	C227.610825,110.117134 257.631958,108.181000 287.586151,116.750450 
	C338.571136,131.336472 372.231049,164.607452 385.387299,216.018677 
	C399.652924,271.765045 383.414490,319.429291 340.739624,357.483490 
	C319.211945,376.680328 293.215240,386.955536 264.227142,389.544098 
	C245.904343,391.180206 228.053818,389.528076 210.084412,384.209961 
M214.964493,296.532196 
	C228.633713,307.646332 244.553482,311.280945 261.414307,308.183563 
	C293.032257,302.375244 313.684814,273.161011 308.443359,241.580429 
	C301.980988,202.643707 258.903809,179.911987 222.488480,200.354965 
	C185.855942,220.919891 182.956604,270.825775 214.964493,296.532196 
z"/>
</svg>