<svg version="1.1" id="Layer_1" xmlns="http://www.w3.org/2000/svg" xmlns:xlink="http://www.w3.org/1999/xlink" x="0px" y="0px"
	 width="100%" viewBox="0 0 500 500" enable-background="new 0 0 500 500" xml:space="preserve">

<path fill="#363636" opacity="1.000000" stroke="none" 
	d="
M180.382050,196.416382 
	C194.937164,160.458939 231.623779,141.351410 268.975067,150.010681 
	C303.784760,158.080734 328.096069,191.423080 326.507202,227.213638 
	C325.030975,260.467682 300.764160,292.789276 261.907257,298.431458 
	C216.156448,305.074677 178.021347,270.642609 175.685120,229.141876 
	C175.058899,218.017548 176.227112,207.212173 180.382050,196.416382 
M257.196503,283.986816 
	C287.988647,280.706268 310.956879,255.681747 311.784576,224.511612 
	C312.578827,194.599991 290.147491,167.987259 259.939697,163.730362 
	C235.697006,160.314087 215.861053,168.827133 201.598541,188.562424 
	C187.630142,207.890732 185.965485,229.309769 196.648148,250.373672 
	C208.777145,274.289490 229.160446,285.604340 257.196503,283.986816 
z"/>
<path fill="#333333" opacity="1.000000" stroke="none" 
	d="
M115.433212,412.018768 
	C115.433105,419.824249 115.433105,427.133148 115.433105,434.724365 
	C108.363831,434.724365 101.637138,434.724365 94.547417,434.724365 
	C94.547417,422.350342 94.547417,410.067719 94.547417,397.411682 
	C92.160347,397.411682 90.124451,397.411682 87.542542,397.411682 
	C87.542542,409.814697 87.542542,422.219513 87.542542,434.811218 
	C80.403038,434.811218 73.783745,434.811218 66.811737,434.811218 
	C66.811737,396.238525 66.811737,357.692902 66.811737,319.161346 
	C79.073425,319.161346 91.339783,318.599945 103.517899,319.393188 
	C109.807503,319.802856 114.849365,326.228821 115.033318,332.777710 
	C115.430565,346.920807 115.735260,361.111176 114.928970,375.216553 
	C114.681503,379.545837 110.701057,383.661713 108.142105,388.409546 
	C117.029022,392.889282 115.443871,402.473663 115.433212,412.018768 
M94.477470,373.857666 
	C94.478035,363.241852 94.520248,352.625824 94.462532,342.010315 
	C94.431107,336.229156 93.370560,335.444031 87.744560,336.580750 
	C87.744560,350.757965 87.744560,364.921539 87.744560,379.092255 
	C91.705421,379.782593 94.453087,379.243347 94.477470,373.857666 
z M344.004211,337.931030 
	C343.930237,367.910706 343.855927,397.890381 343.782928,427.870056 
	C343.777710,430.013794 343.782196,432.157562 343.782196,434.652283 
	C336.796204,434.652283 330.077911,434.652283 322.912628,434.652283 
	C322.912628,418.616302 322.912628,402.548218 322.912628,386.059448 
	C320.449860,386.059448 318.415314,386.059448 315.981873,386.059448 
	C315.981873,402.052765 315.981873,418.148773 315.981873,434.623779 
	C308.891327,434.623779 302.174316,434.623779 294.816925,434.623779 
	C294.816925,411.818787 294.816925,388.907623 294.863922,365.071533 
	C294.910919,349.063263 294.910919,333.979950 294.910919,318.571289 
	C298.312378,318.336151 301.246918,318.133331 304.181458,317.930481 
	C307.264130,318.080536 310.346771,318.230591 314.093384,318.485901 
	C315.176117,319.349701 315.594940,320.108246 315.930481,321.340118 
	C315.920532,326.848938 315.993835,331.884460 315.993103,337.390015 
	C315.951385,343.914368 315.983643,349.968689 315.932617,356.479218 
	C315.849335,360.530212 315.849335,364.124969 315.849335,367.723694 
	C318.405792,367.723694 320.338104,367.723694 322.673492,367.723694 
	C322.673492,362.729065 322.673492,357.948273 322.746460,352.712463 
	C322.800232,349.815155 322.781036,347.372833 322.770691,344.471100 
	C322.756592,339.707275 322.733643,335.402924 322.817139,330.764954 
	C322.839478,329.979370 322.755341,329.527374 322.717651,328.612488 
	C322.764069,325.054474 322.764069,321.959320 322.764069,318.756073 
	C330.061096,318.756073 336.744202,318.756073 344.004211,318.756073 
	C344.004211,325.406219 344.004211,331.668640 344.004211,337.931030 
z M226.067200,333.088715 
	C226.067200,366.883087 226.067200,400.677490 226.067200,434.735596 
	C218.895355,434.735596 212.165421,434.735596 205.001465,434.735596 
	C205.001465,422.534454 205.001465,410.454254 205.001465,398.155762 
	C202.635223,398.155762 200.690475,398.155762 198.313751,398.155762 
	C198.313751,410.091400 198.313751,422.165741 198.313751,434.619354 
	C191.175613,434.619354 184.439560,434.619354 176.962280,434.619354 
	C176.962280,402.279053 176.962280,369.699615 176.973526,336.253021 
	C177.239624,327.794189 180.949265,322.544006 187.802658,319.424530 
	C190.933609,319.117126 194.064545,318.809753 198.006271,318.393402 
	C201.126846,318.302795 203.436615,318.324097 205.746429,318.338989 
	C217.575226,318.415222 222.474213,321.970428 226.067200,333.088715 
M198.022781,362.043060 
	C198.022781,367.981720 198.022781,373.920349 198.022781,379.861389 
	C200.562164,379.861389 202.619415,379.861389 204.787292,379.861389 
	C204.787292,374.113922 204.787292,368.658173 204.944473,362.251312 
	C204.955551,355.137054 205.196182,348.010223 204.808701,340.917755 
	C204.717209,339.243042 202.512207,337.683868 201.279434,336.071533 
	C200.185074,337.645905 198.220947,339.181122 198.147980,340.801483 
	C197.843384,347.565186 198.107147,354.354492 198.022781,362.043060 
z M257.136902,370.941895 
	C257.087738,384.752960 257.048889,398.564087 256.980103,412.375031 
	C256.967255,414.959076 257.566437,417.625061 260.585938,416.928009 
	C262.017426,416.597565 263.755920,413.766144 263.823914,412.008514 
	C264.157104,403.397095 263.974976,394.765686 263.974976,385.879822 
	C271.072113,385.879822 277.785004,385.879822 284.812561,385.879822 
	C284.812561,397.500641 285.239746,408.965240 284.669708,420.380005 
	C284.256256,428.659119 277.340790,434.563171 268.953705,434.924805 
	C263.637390,435.154022 258.301697,435.091858 252.978714,434.975250 
	C242.940948,434.755371 236.125137,427.988098 236.036255,417.905975 
	C235.898346,402.262207 235.987274,386.616455 235.971527,370.043640 
	C235.991379,356.402466 236.019775,343.689240 236.048157,330.975983 
	C236.048157,330.975983 235.991684,331.009735 236.295197,330.832336 
	C239.145584,323.009216 244.428940,318.931580 252.493210,318.608032 
	C256.311462,318.454803 260.137085,318.483887 263.959351,318.430359 
	C266.693268,318.611176 269.427155,318.792023 272.828003,319.225983 
	C281.162537,322.492828 284.859589,327.609314 284.952057,335.707184 
	C285.071350,346.153442 285.050262,356.601349 285.089600,367.048523 
	C281.664246,367.355225 278.238892,367.661896 273.917389,367.963165 
	C270.096069,367.957764 267.170868,367.957764 263.980347,367.957764 
	C263.980347,358.760223 264.184052,350.277252 263.827942,341.817841 
	C263.745514,339.859711 261.924255,336.504486 260.602631,336.349121 
	C256.888245,335.912628 256.978973,339.245300 256.993408,341.977448 
	C257.044312,351.632263 257.089569,361.287079 257.136902,370.941895 
z M156.785416,336.279327 
	C153.502426,336.279327 150.219437,336.279327 146.707428,336.279327 
	C146.707428,346.670685 146.707428,356.754974 146.707428,367.432098 
	C152.100113,367.432098 157.328705,367.432098 162.742264,367.432098 
	C162.742264,373.593597 162.742264,379.162354 162.742264,385.120728 
	C157.423447,385.120728 152.323944,385.120728 146.854340,385.120728 
	C146.854340,395.880035 146.854340,406.256165 146.854340,417.165771 
	C154.209076,417.165771 161.618744,417.165771 169.354340,417.165771 
	C169.354340,423.249969 169.354340,428.814484 169.354340,434.693542 
	C154.930649,434.693542 140.525665,434.693542 125.796997,434.693542 
	C125.796997,396.230042 125.796997,357.695526 125.796997,318.359680 
	C129.657196,318.359680 133.411102,318.359680 138.072144,318.363403 
	C149.037613,318.367126 159.095901,318.367126 169.410187,318.367126 
	C169.410187,324.575928 169.410187,330.107758 169.410187,336.279327 
	C165.003662,336.279327 160.894547,336.279327 156.785416,336.279327 
z"/>
<path fill="#545454" opacity="1.000000" stroke="none" 
	d="
M428.995667,363.059052 
	C424.138367,387.101959 419.332733,410.722412 414.462433,434.660522 
	C407.653717,434.660522 400.910095,434.660522 393.480530,434.660522 
	C400.077454,401.870728 406.651398,369.195190 413.311554,336.091125 
	C406.117432,336.091125 399.335754,336.091125 392.191681,336.091125 
	C392.191681,330.180511 392.191681,324.620483 392.191681,318.712646 
	C407.243561,318.712646 422.322449,318.712646 437.983185,318.712646 
	C434.987366,333.438477 432.017303,348.037537 428.995667,363.059052 
z M364.587402,318.188202 
	C370.063904,318.188202 375.540405,318.188202 381.412292,318.188202 
	C381.412292,357.260620 381.412292,395.800964 381.412292,434.674103 
	C374.748718,434.674103 368.031006,434.674103 360.891235,434.674103 
	C360.891235,401.975128 360.891235,369.386536 360.891235,336.461273 
	C358.449890,336.226929 356.384430,336.028717 353.792938,335.779968 
	C353.792938,334.068817 353.792938,332.457062 353.806641,329.957153 
	C353.820343,325.670319 353.820343,322.271667 353.820343,318.188202 
	C357.794647,318.188202 361.191040,318.188202 364.587402,318.188202 
z"/>
<path fill="#F37B85" opacity="1.000000" stroke="none" 
	d="
M277.930298,79.015495 
	C284.628784,80.677254 290.890900,82.332802 297.170471,83.919403 
	C299.726135,84.565102 300.196960,85.801697 299.221191,88.290535 
	C292.242706,106.089890 285.365417,123.929131 278.523010,141.781387 
	C277.610016,144.163483 276.417145,145.245636 273.678436,144.637085 
	C268.820587,143.557648 263.815948,143.068909 259.038666,141.737656 
	C257.517303,141.313705 255.465012,139.014954 255.446396,137.551331 
	C255.205170,118.569489 255.305374,99.583511 255.267258,80.598679 
	C255.261719,77.838020 256.371063,76.587624 259.181854,76.914932 
	C265.285675,77.625725 271.394257,78.295189 277.930298,79.015495 
z"/>
<path fill="#DA7B87" opacity="1.000000" stroke="none" 
	d="
M368.622101,208.666229 
	C357.576721,209.679474 346.996155,210.755814 336.390747,211.458160 
	C335.065765,211.545898 332.822449,209.937576 332.355194,208.631851 
	C330.629150,203.808228 329.240387,198.827240 328.245056,193.802368 
	C327.965485,192.390884 329.026947,189.764236 330.219971,189.153503 
	C347.238525,180.441162 364.361633,171.930496 381.558777,163.575531 
	C382.621307,163.059296 385.472595,163.814621 385.870972,164.704132 
	C391.531097,177.342590 395.506287,190.493805 396.929047,204.332397 
	C396.959320,204.627075 396.732025,204.948227 396.423920,205.836212 
	C387.481415,206.744888 378.280365,207.679840 368.622101,208.666229 
z"/>
<path fill="#92AE8C" opacity="1.000000" stroke="none" 
	d="
M105.934158,247.085480 
	C105.295174,237.038269 104.700912,227.425766 104.125122,217.812164 
	C103.974739,215.301315 104.958618,214.207809 107.688995,214.476715 
	C126.712166,216.350159 145.738998,218.195267 164.781921,219.850845 
	C168.109360,220.140121 168.903793,221.543121 168.953568,224.575714 
	C169.024246,228.883347 169.374191,233.213257 169.996628,237.476440 
	C170.491119,240.863205 169.677231,242.569214 166.118515,243.544586 
	C148.325836,248.421173 130.587357,253.499176 112.874359,258.659332 
	C109.503799,259.641235 107.841759,258.853149 107.359467,255.373184 
	C106.994881,252.742447 106.450264,250.136673 105.934158,247.085480 
z"/>
<path fill="#F58E81" opacity="1.000000" stroke="none" 
	d="
M377.002228,255.002075 
	C363.499023,251.237823 350.443329,247.359467 337.268311,243.941010 
	C332.712708,242.759003 331.410248,240.620972 332.247925,236.179153 
	C333.014130,232.116135 333.188354,227.939148 333.575592,223.807892 
	C333.806091,221.348389 334.720978,220.109497 337.550293,219.868042 
	C356.577179,218.244202 375.590454,216.452576 394.594788,214.579834 
	C397.416962,214.301727 398.298218,215.420258 398.097412,217.880508 
	C397.059509,230.595917 395.995056,243.309250 394.901520,256.019989 
	C394.651947,258.920868 392.841248,259.575348 390.316193,258.851807 
	C386.004425,257.616333 381.706573,256.332184 377.002228,255.002075 
z"/>
<path fill="#E2BC80" opacity="1.000000" stroke="none" 
	d="
M181.263580,271.076569 
	C165.772095,282.910400 150.490662,294.424744 135.305359,306.064545 
	C132.286392,308.378632 130.464386,308.490173 128.249466,304.894135 
	C121.248154,293.527313 115.206718,281.756714 111.010956,268.441681 
	C112.949928,267.688446 114.695259,266.845215 116.531822,266.322693 
	C133.786606,261.413605 151.088791,256.667328 168.296432,251.599457 
	C171.801361,250.567215 173.518387,251.370483 174.915543,254.532318 
	C176.662399,258.485596 178.841812,262.246826 180.617477,266.188751 
	C181.243271,267.577942 181.229279,269.255341 181.263580,271.076569 
z"/>
<path fill="#69B3D7" opacity="1.000000" stroke="none" 
	d="
M130.671097,168.320282 
	C144.089996,175.013718 157.089279,181.723694 170.321991,187.936523 
	C174.594269,189.942413 175.508759,192.115646 173.864197,196.348328 
	C172.308533,200.352219 171.594452,204.681290 170.068619,208.699646 
	C169.583252,209.977875 167.600082,211.664520 166.440857,211.564148 
	C147.099762,209.889191 127.782349,207.942505 108.454704,206.108566 
	C105.959435,205.871796 104.731918,204.974716 105.502350,202.286270 
	C108.968666,190.190369 112.428474,178.092484 115.833389,165.979218 
	C116.754356,162.702789 118.549278,162.178955 121.413605,163.706024 
	C124.345177,165.268936 127.362373,166.671265 130.671097,168.320282 
z"/>
<path fill="#6A9BBA" opacity="1.000000" stroke="none" 
	d="
M168.973892,101.949348 
	C176.359665,97.768692 183.468063,93.825500 190.497070,89.745514 
	C193.274017,88.133644 194.658112,89.004433 195.720291,91.779457 
	C202.482773,109.447060 209.275192,127.103600 216.177231,144.716949 
	C217.237549,147.422791 216.791077,148.928879 214.184631,150.319458 
	C210.234512,152.426880 206.301315,154.663528 202.712402,157.320084 
	C199.760803,159.504929 197.940018,159.034134 195.617233,156.454865 
	C183.944748,143.493576 172.127762,130.662476 160.366776,117.780846 
	C158.820694,116.087440 157.304825,114.366447 155.217606,112.035904 
	C159.957016,108.545303 164.310867,105.338661 168.973892,101.949348 
z"/>
<path fill="#7688A6" opacity="1.000000" stroke="none" 
	d="
M240.152130,77.042160 
	C242.559860,77.012260 244.504517,77.012260 246.717438,77.012260 
	C246.832840,78.787285 246.988770,80.078262 246.989899,81.369370 
	C247.005859,99.700150 246.887497,118.032211 247.092255,136.360718 
	C247.135544,140.235367 245.827286,141.683548 242.128616,142.094238 
	C237.842621,142.570160 233.558990,143.363144 229.384521,144.444061 
	C226.575684,145.171371 225.098999,144.655472 224.032654,141.864029 
	C217.265762,124.149963 210.414154,106.467964 203.506241,88.808350 
	C202.402542,85.986832 202.884323,84.381241 206.004761,83.768623 
	C217.238113,81.563286 228.461746,79.308304 240.152130,77.042160 
z"/>
<path fill="#E5C781" opacity="1.000000" stroke="none" 
	d="
M287.876221,140.908661 
	C294.171997,124.593292 300.474274,108.696930 306.455688,92.680725 
	C307.921600,88.755501 309.832214,88.131615 313.090454,90.150681 
	C323.235291,96.437256 333.374268,102.733650 343.476105,109.088882 
	C346.262787,110.842018 346.699066,112.734596 344.169067,115.476974 
	C331.668549,129.026764 319.274902,142.676941 306.997467,156.429123 
	C304.621765,159.090179 302.698456,159.430984 299.837128,157.355988 
	C297.022186,155.314621 293.920990,153.665619 290.930664,151.868988 
	C284.813904,148.193939 284.802826,148.177292 287.876221,140.908661 
z"/>
<path fill="#69CFE8" opacity="1.000000" stroke="none" 
	d="
M344.431976,254.631958 
	C359.201324,258.841827 373.574310,262.964111 387.988922,266.935394 
	C390.762939,267.699677 391.637115,268.883850 390.331696,271.537415 
	C384.837097,282.706390 379.381226,293.894409 373.897980,305.069000 
	C372.401001,308.119720 370.689301,308.650391 367.709473,306.362701 
	C353.192261,295.217224 338.551697,284.231323 323.880463,273.288574 
	C321.026031,271.159576 320.056091,269.089844 321.970001,265.737854 
	C324.192749,261.844971 325.744659,257.554688 328.119202,253.770370 
	C328.967010,252.419128 331.497711,251.165390 333.032928,251.393936 
	C336.776093,251.951202 340.386353,253.401260 344.431976,254.631958 
z"/>
<path fill="#7FC393" opacity="1.000000" stroke="none" 
	d="
M321.549255,180.706543 
	C318.405457,176.573151 315.565948,172.676163 312.568085,168.905090 
	C310.753448,166.622421 310.478943,164.862671 312.696991,162.458603 
	C325.318451,148.778702 337.818024,134.985321 350.253326,121.135605 
	C352.606781,118.514519 354.469269,118.291183 356.622650,121.137947 
	C363.921661,130.787338 371.253113,140.412231 378.546295,150.066055 
	C380.719788,152.943085 380.319977,154.819702 376.767761,156.536575 
	C360.166809,164.560272 343.711792,172.885788 327.116455,180.921463 
	C325.667572,181.623032 323.578491,181.002441 321.549255,180.706543 
z"/>
<path fill="#A0D692" opacity="1.000000" stroke="none" 
	d="
M163.330765,133.650314 
	C172.251785,143.338669 180.891296,152.807129 189.639984,162.173599 
	C191.839676,164.528610 192.131775,166.369186 189.843185,168.965866 
	C186.882202,172.325470 184.619797,176.307816 181.603867,179.608307 
	C180.472626,180.846283 177.561813,181.973190 176.326019,181.372864 
	C158.357803,172.644104 140.535370,163.615219 122.689728,154.634933 
	C122.446350,154.512482 122.352753,154.092392 121.018639,152.916489 
	C128.367004,143.355820 135.455795,133.579666 143.152191,124.307877 
	C148.560593,117.792419 148.955902,118.074554 154.700089,124.154816 
	C157.556091,127.177917 160.296814,130.309906 163.330765,133.650314 
z"/>
<path fill="#F5C180" opacity="1.000000" stroke="none" 
	d="
M156.971741,336.558472 
	C160.894547,336.279327 165.003662,336.279327 169.410187,336.279327 
	C169.410187,330.107758 169.410187,324.575928 169.410187,318.367126 
	C159.095901,318.367126 149.037613,318.367126 138.527649,318.250183 
	C138.406143,316.627655 138.210037,314.439178 139.145111,313.718536 
	C154.145020,302.158936 169.299225,290.799744 184.390808,279.358643 
	C186.965790,277.406525 189.077118,277.549561 191.340851,279.965546 
	C193.952072,282.752350 196.561111,285.696594 199.687927,287.806549 
	C203.853882,290.617737 203.350800,293.270996 201.025146,296.923279 
	C196.483246,304.055939 192.253067,311.387115 187.848236,319.030334 
	C180.949265,322.544006 177.239624,327.794189 176.906586,335.802490 
	C174.636230,339.467285 172.444077,342.715485 169.795227,346.640350 
	C165.387085,343.220917 161.272568,340.029236 156.971741,336.558472 
z"/>
<path fill="#FBD373" opacity="1.000000" stroke="none" 
	d="
M364.716431,317.815063 
	C361.191040,318.188202 357.794647,318.188202 353.820343,318.188202 
	C353.820343,322.271667 353.820343,325.670319 353.731934,329.510834 
	C350.624268,332.513153 347.605011,335.073669 344.294983,337.782593 
	C344.004211,331.668640 344.004211,325.406219 344.004211,318.756073 
	C336.744202,318.756073 330.061096,318.756073 322.764069,318.756073 
	C322.764069,321.959320 322.764069,325.054474 322.511963,328.605316 
	C322.259827,329.061005 321.867462,329.185425 321.624512,328.948242 
	C319.592316,326.096283 317.803009,323.481537 316.013733,320.866791 
	C315.594940,320.108246 315.176117,319.349701 314.561005,318.406799 
	C309.841614,310.676605 305.475983,303.029358 300.715088,295.636688 
	C298.905426,292.826660 298.893402,291.086456 301.510254,288.938385 
	C305.100830,285.991028 308.490723,282.786224 311.831177,279.551849 
	C313.901672,277.547089 315.687866,277.569214 317.943787,279.286377 
	C332.755585,290.560791 347.656586,301.718353 362.421387,313.053558 
	C363.636322,313.986328 364.056152,315.954712 364.716431,317.815063 
z"/>
<path fill="#BB7588" opacity="1.000000" stroke="none" 
	d="
M285.461304,366.978271 
	C285.050262,356.601349 285.071350,346.153442 284.952057,335.707184 
	C284.859589,327.609314 281.162537,322.492828 273.261108,319.232300 
	C272.438416,315.405304 271.946320,311.805481 271.228790,308.251221 
	C270.691010,305.587494 271.218323,303.885010 274.054718,302.913605 
	C278.589142,301.360626 283.077393,299.628815 287.457916,297.685730 
	C290.376312,296.391235 291.993988,297.211823 293.506989,299.823853 
	C296.905945,305.691711 300.522491,311.433533 304.115967,317.578583 
	C301.246918,318.133331 298.312378,318.336151 294.910919,318.571289 
	C294.910919,333.979950 294.910919,349.063263 294.832001,364.608429 
	C291.779694,365.682892 288.806335,366.295441 285.461304,366.978271 
z"/>
<path fill="#EB74B5" opacity="1.000000" stroke="none" 
	d="
M226.310425,332.787567 
	C222.474213,321.970428 217.575226,318.415222 205.746429,318.338989 
	C203.436615,318.324097 201.126846,318.302795 198.354187,318.172882 
	C201.687622,311.848175 205.554703,305.676636 209.242767,299.399872 
	C210.579071,297.125641 211.980408,296.508392 214.495941,297.570282 
	C219.216339,299.562958 224.156143,301.060974 228.778931,303.243011 
	C230.009048,303.823669 231.274460,306.272369 231.065536,307.640778 
	C229.795700,315.958405 228.104309,324.211670 226.310425,332.787567 
z"/>
<path fill="#F6A87C" opacity="1.000000" stroke="none" 
	d="
M264.035950,317.967529 
	C260.137085,318.483887 256.311462,318.454803 252.493210,318.608032 
	C244.428940,318.931580 239.145584,323.009216 236.313812,330.859436 
	C237.248886,323.589081 238.330368,316.086121 239.836456,308.669342 
	C240.065186,307.542969 242.216080,306.126648 243.562180,306.031036 
	C248.176819,305.703278 252.838074,306.082001 257.463867,305.845306 
	C261.086395,305.659973 263.157867,306.614502 263.191895,310.647980 
	C263.211182,312.935974 263.787231,315.219269 264.035950,317.967529 
z"/>
<path fill="#F7A87D" opacity="1.000000" stroke="none" 
	d="
M257.568420,370.925598 
	C257.089569,361.287079 257.044312,351.632263 256.993408,341.977448 
	C256.978973,339.245300 256.888245,335.912628 260.602631,336.349121 
	C261.924255,336.504486 263.745514,339.859711 263.827942,341.817841 
	C264.184052,350.277252 263.980347,358.760223 263.980347,367.957764 
	C267.170868,367.957764 270.096069,367.957764 273.463257,368.032471 
	C268.603485,369.041168 263.301727,369.975220 257.568420,370.925598 
z"/>
<path fill="#F8AB81" opacity="1.000000" stroke="none" 
	d="
M235.751343,331.225342 
	C236.019775,343.689240 235.991379,356.402466 235.899979,369.583008 
	C228.446716,369.764374 228.114899,369.278137 229.522705,362.205444 
	C231.559326,351.973663 233.482803,341.719360 235.751343,331.225342 
z"/>
<path fill="#BD8D93" opacity="1.000000" stroke="none" 
	d="
M322.746460,352.712463 
	C320.659821,354.028839 318.646179,354.890198 316.324219,355.887268 
	C315.983643,349.968689 315.951385,343.914368 315.993103,337.390015 
	C318.078308,339.560181 320.089478,342.200439 322.431244,344.885620 
	C322.781036,347.372833 322.800232,349.815155 322.746460,352.712463 
z"/>
<path fill="#BD8D93" opacity="1.000000" stroke="none" 
	d="
M322.817139,330.764954 
	C322.459137,330.638000 322.207611,330.177460 321.911774,329.451172 
	C321.867462,329.185425 322.259827,329.061005 322.465515,329.068176 
	C322.755341,329.527374 322.839478,329.979370 322.817139,330.764954 
z"/>
<path fill="#EA73B4" opacity="1.000000" stroke="none" 
	d="
M198.162521,361.134399 
	C198.107147,354.354492 197.843384,347.565186 198.147980,340.801483 
	C198.220947,339.181122 200.185074,337.645905 201.279449,336.071533 
	C202.512207,337.683868 204.717209,339.243042 204.808701,340.917755 
	C205.196182,348.010223 204.955551,355.137054 204.513184,362.678650 
	C202.108780,362.448761 200.135651,361.791595 198.162521,361.134399 
z"/>
<path fill="#555555" opacity="1.000000" stroke="none" 
	d="
M300.349213,231.140167 
	C295.971588,259.223358 270.124512,277.449188 241.714798,272.856934 
	C216.686966,268.811401 197.517868,242.589737 201.267151,217.528122 
	C205.577774,188.714340 230.502274,169.937210 258.851562,174.146271 
	C285.573883,178.113785 304.565491,203.950546 300.349213,231.140167 
M237.901031,238.644958 
	C244.749390,244.357880 252.328293,245.383194 260.156250,241.271439 
	C267.946991,237.179230 271.801361,230.365387 270.876007,221.530121 
	C270.002838,213.193558 265.236145,207.459183 257.345123,204.601883 
	C248.690872,201.468201 239.021927,205.073471 233.891586,213.112183 
	C228.909164,220.919113 230.242859,230.529556 237.901031,238.644958 
z"/>
</svg>