<svg version="1.1" id="Layer_1" xmlns="http://www.w3.org/2000/svg" xmlns:xlink="http://www.w3.org/1999/xlink" x="0px" y="0px"
	 width="100%" viewBox="0 0 500 500" enable-background="new 0 0 500 500" xml:space="preserve">
<path fill="#333333" opacity="1.000000" stroke="none" 
	d="
M413.392517,209.513824 
	C429.863708,217.122879 439.526184,229.519165 440.894379,247.305984 
	C442.341492,266.118408 434.584442,280.850464 418.087769,290.072144 
	C402.419037,298.830963 386.402008,298.168427 371.371002,288.295471 
	C356.424164,278.477814 349.813538,264.052734 351.606873,246.382263 
	C353.450562,228.215652 363.560089,215.796951 380.461243,209.028259 
	C391.314880,204.681534 402.227386,205.192978 413.392517,209.513824 
M400.036560,221.223755 
	C398.539337,221.157028 397.040558,221.007828 395.545166,221.036606 
	C383.291382,221.272354 371.928345,229.403320 368.026978,240.689743 
	C363.784332,252.963486 367.157562,265.764099 376.738770,273.749268 
	C386.835876,282.164398 400.046967,283.409760 411.159180,276.994019 
	C422.036285,270.714050 427.754883,258.680115 425.872070,246.032791 
	C424.067596,233.911728 414.695312,224.633408 400.036560,221.223755 
z M163.618835,279.007324 
	C163.618774,284.471039 163.618774,289.438385 163.618774,294.703644 
	C158.355255,294.703644 153.448471,294.703644 148.159515,294.703644 
	C148.058868,293.583405 147.849228,292.330811 147.848160,291.078033 
	C147.828552,268.109253 147.814804,245.140442 147.842682,222.171707 
	C147.855255,211.808578 152.407181,207.251907 162.698639,207.168289 
	C165.195084,207.148010 167.692276,207.134064 170.188354,207.170502 
	C179.764771,207.310226 184.636444,212.050797 184.676804,221.683258 
	C184.767456,243.320129 184.705841,264.957642 184.706177,286.594910 
	C184.706223,289.225281 184.706192,291.855652 184.706192,294.740387 
	C179.370758,294.740387 174.454712,294.740387 169.036148,294.740387 
	C169.036148,285.742950 169.036148,276.689941 169.036148,267.302002 
	C167.156082,267.192078 165.748856,267.109772 163.618896,266.985199 
	C163.618896,271.002045 163.618896,274.756500 163.618835,279.007324 
M167.210541,220.833221 
	C166.013504,221.752563 163.800293,222.645920 163.776031,223.595245 
	C163.522293,233.524078 163.619446,243.461868 163.619446,253.840057 
	C165.697464,253.738129 167.206345,253.664124 168.901688,253.580963 
	C168.901688,246.213867 169.003174,239.399155 168.861557,232.589478 
	C168.783325,228.827148 168.297562,225.073303 167.210541,220.833221 
z M101.244080,269.386963 
	C101.275230,277.996674 101.275230,286.150757 101.275230,294.653046 
	C96.099953,294.653046 91.055534,294.653046 85.488121,294.653046 
	C85.488121,285.352478 85.488121,276.105103 85.488121,266.648407 
	C83.568893,266.648407 82.166718,266.648407 80.271721,266.648407 
	C80.271721,276.130005 80.271721,285.352966 80.271721,294.783569 
	C74.855133,294.783569 69.929634,294.783569 64.820221,294.783569 
	C64.820221,265.608490 64.820221,236.562607 64.820221,207.264969 
	C73.263710,207.264969 81.411942,206.949249 89.523369,207.360031 
	C96.632210,207.720047 101.061295,212.635468 101.209152,219.817856 
	C101.404419,229.302536 101.717781,238.825363 101.058578,248.267456 
	C100.787857,252.145096 98.113831,255.854935 96.562485,259.570526 
	C97.852097,262.166351 99.532516,265.548828 101.244080,269.386963 
M85.722092,226.840149 
	C85.592339,220.597412 85.332642,220.299683 80.340393,220.936966 
	C80.340393,231.480057 80.340393,242.050323 80.340393,252.601074 
	C85.011215,253.140717 85.615646,252.796432 85.685555,248.694305 
	C85.804398,241.721741 85.720627,234.745712 85.722092,226.840149 
z M258.376404,207.528351 
	C263.404114,207.262146 268.032104,207.262146 272.966980,207.262146 
	C272.966980,236.495316 272.966980,265.399994 272.966980,294.653381 
	C268.095917,294.653381 263.050293,294.653381 257.575317,294.653381 
	C257.575317,282.446869 257.575317,270.357544 257.575317,258.066681 
	C255.697357,258.066681 254.244110,258.066681 252.375244,258.066681 
	C252.375244,270.253357 252.375244,282.338196 252.375244,294.710419 
	C247.039291,294.710419 242.112244,294.710419 236.842773,294.710419 
	C236.842773,265.744659 236.842773,236.716431 236.842773,207.432114 
	C241.917175,207.432114 246.811356,207.432114 252.190613,207.432114 
	C252.190613,219.738846 252.190613,231.822830 252.190613,244.162216 
	C254.096832,244.162216 255.519287,244.162216 257.976654,244.162216 
	C257.976654,231.940186 257.976654,219.867371 258.376404,207.528351 
z M228.367523,244.192566 
	C223.181335,244.415344 218.396286,244.415344 213.213211,244.415344 
	C213.213211,237.798370 213.400940,231.662430 213.090698,225.551773 
	C213.005493,223.873535 211.430771,222.270920 210.539551,220.633606 
	C209.703857,222.191055 208.157440,223.741287 208.141541,225.307083 
	C207.967422,242.456879 207.955017,259.610016 208.158676,276.759186 
	C208.177750,278.364471 209.971207,279.948700 210.940811,281.542694 
	C211.698425,279.928864 213.039368,278.339935 213.109589,276.696716 
	C213.370605,270.588593 213.213669,264.462585 213.213669,258.093506 
	C218.617142,258.093506 223.539948,258.093506 228.891830,258.093506 
	C228.891830,267.024048 229.282639,275.974365 228.751816,284.869690 
	C228.408859,290.616486 223.007874,294.700043 216.869278,294.954376 
	C212.879547,295.119629 208.874069,295.107269 204.882263,294.974792 
	C197.637573,294.734344 192.393021,290.086060 192.305099,282.783752 
	C192.050507,261.639587 192.049637,240.488083 192.322998,219.344299 
	C192.414261,212.285172 197.415482,207.735901 204.540802,207.268402 
	C208.684937,206.996521 212.879791,206.977081 217.019958,207.279892 
	C224.328491,207.814407 228.947067,212.721207 229.018646,220.032013 
	C229.096771,228.009689 228.865204,235.990387 228.367523,244.192566 
z M115.132729,207.167908 
	C124.243416,207.167908 132.871277,207.167908 141.822937,207.167908 
	C141.822937,211.726913 141.822937,215.933167 141.822937,220.585724 
	C136.228622,220.585724 130.804199,220.585724 125.137085,220.585724 
	C125.137085,228.588364 125.137085,236.150177 125.137085,244.137512 
	C129.093414,244.137512 132.844299,244.137512 136.867950,244.137512 
	C136.867950,248.644745 136.867950,252.736572 136.867950,257.291748 
	C133.144470,257.291748 129.398376,257.291748 125.266342,257.291748 
	C125.266342,265.594910 125.266342,273.446411 125.266342,281.733398 
	C130.774658,281.733398 136.197479,281.733398 141.877960,281.733398 
	C141.877960,286.237305 141.877960,290.322418 141.877960,294.709503 
	C131.166672,294.709503 120.419106,294.709503 109.331909,294.709503 
	C109.331909,265.806244 109.331909,236.779526 109.331909,207.167908 
	C111.105087,207.167908 112.877495,207.167908 115.132729,207.167908 
z"/>
<path fill="#545454" opacity="1.000000" stroke="none" 
	d="
M331.758881,269.799988 
	C329.986664,278.329987 328.303711,286.447601 326.579681,294.763489 
	C321.319122,294.763489 316.232971,294.763489 310.815735,294.763489 
	C315.775879,270.061829 320.676514,245.656357 325.700195,220.638229 
	C320.107300,220.638229 315.183441,220.638229 309.856445,220.638229 
	C309.856445,215.946701 309.856445,211.755417 309.856445,207.358612 
	C321.188782,207.358612 332.302032,207.358612 344.293640,207.358612 
	C340.110504,228.207626 335.979340,248.797607 331.758881,269.799988 
z M302.042877,245.000000 
	C302.042877,261.785675 302.042877,278.071350 302.042877,294.682068 
	C296.755005,294.682068 291.716888,294.682068 286.257202,294.682068 
	C286.257202,270.144318 286.257202,245.754456 286.257202,221.051956 
	C284.496552,220.785416 283.092682,220.572891 281.345703,220.308426 
	C281.345703,216.109177 281.345703,211.906128 281.345703,207.427307 
	C288.020325,207.427307 294.611115,207.427307 302.042877,207.427307 
	C302.042877,219.730331 302.042877,232.115158 302.042877,245.000000 
z M417.263153,241.093750 
	C420.746521,250.754532 420.155029,259.487732 413.118164,266.966370 
	C406.724457,273.761475 398.691620,275.625854 389.829956,273.389954 
	C380.713928,271.089905 373.477264,262.147339 373.020599,253.240646 
	C372.464447,242.393234 378.194977,232.848724 387.431854,229.237747 
	C396.654022,225.632492 407.450989,228.274338 413.766022,235.788986 
	C415.036987,237.301361 415.982361,239.087341 417.263153,241.093750 
M398.072693,242.963348 
	C392.144531,241.445847 387.559570,246.671570 387.931915,251.510864 
	C388.311371,256.443024 392.711792,260.366577 397.550934,258.881531 
	C400.090759,258.102112 402.949432,255.486420 403.896454,253.020950 
	C405.600250,248.585419 403.303986,245.035095 398.072693,242.963348 
z"/>
</svg>